<svg xmlns="http://www.w3.org/2000/svg" viewBox="0 0 612 612"><defs><style>.cls-1{fill:#171717;}.cls-2,.cls-3,.cls-4{fill:#fff;}.cls-3{font-size:120px;font-family:HelveticaNeue-Bold, Helvetica Neue;font-weight:700;}.cls-4{font-size:170px;font-family:HelveticaNeue-Thin, Helvetica Neue;font-weight:200;}</style></defs><title>logo</title><g id="Layer_2" data-name="Layer 2"><g id="Layer_1-2" data-name="Layer 1"><g id="logo"><g id="BG"><path class="cls-1" d="M306,607A301,301,0,0,1,93.16,93.16,301,301,0,0,1,518.84,518.84,299,299,0,0,1,306,607Z"/><path class="cls-2" d="M306,10A295.9,295.9,0,0,1,515.3,515.3a296,296,0,1,1-324.51-482A294,294,0,0,1,306,10m0-10C137,0,0,137,0,306S137,612,306,612,612,475,612,306,475,0,306,0Z"/></g><g id="TEXT"><text class="cls-3" transform="translate(37.08 392.34)">OWNERS</text><text class="cls-4" transform="translate(64.52 278.04)">SMMA</text></g></g></g></g></svg>